<svg id="svg" version="1.1" xmlns="http://www.w3.org/2000/svg" xmlns:xlink="http://www.w3.org/1999/xlink" viewBox="0, 0, 400,400"><g id="svgg"><path id="path0" d="M197.467 61.467 C 197.320 61.613,197.200 62.051,197.200 62.439 C 197.200 62.866,196.845 63.195,196.300 63.272 C 195.730 63.353,195.354 63.721,195.275 64.275 C 195.198 64.821,194.821 65.198,194.275 65.275 C 193.730 65.353,193.353 65.730,193.275 66.275 C 193.198 66.821,192.821 67.198,192.275 67.275 C 191.730 67.353,191.353 67.730,191.275 68.275 C 191.198 68.821,190.821 69.198,190.275 69.275 C 189.730 69.353,189.353 69.730,189.275 70.275 C 189.198 70.821,188.821 71.198,188.275 71.275 C 187.730 71.353,187.353 71.730,187.275 72.275 C 187.198 72.821,186.821 73.198,186.275 73.275 C 185.721 73.354,185.353 73.730,185.272 74.300 C 185.180 74.951,184.876 75.200,184.172 75.200 C 183.402 75.200,183.200 75.408,183.200 76.200 C 183.200 77.000,183.000 77.200,182.200 77.200 C 181.400 77.200,181.200 77.400,181.200 78.200 C 181.200 79.000,181.000 79.200,180.200 79.200 C 179.400 79.200,179.200 79.400,179.200 80.200 C 179.200 81.000,179.000 81.200,178.200 81.200 C 177.400 81.200,177.200 81.400,177.200 82.200 C 177.200 83.000,177.000 83.200,176.200 83.200 C 175.400 83.200,175.200 83.400,175.200 84.200 C 175.200 85.000,175.000 85.200,174.200 85.200 C 173.400 85.200,173.200 85.400,173.200 86.200 C 173.200 87.000,173.000 87.200,172.200 87.200 C 171.400 87.200,171.200 87.400,171.200 88.200 C 171.200 89.000,171.000 89.200,170.200 89.200 C 169.400 89.200,169.200 89.400,169.200 90.200 C 169.200 91.000,169.000 91.200,168.200 91.200 C 167.400 91.200,167.200 91.400,167.200 92.200 C 167.200 93.000,167.000 93.200,166.200 93.200 C 165.400 93.200,165.200 93.400,165.200 94.200 C 165.200 95.000,165.000 95.200,164.200 95.200 C 163.400 95.200,163.200 95.400,163.200 96.200 C 163.200 97.000,163.000 97.200,162.200 97.200 C 161.400 97.200,161.200 97.400,161.200 98.200 C 161.200 99.000,161.000 99.200,160.200 99.200 C 159.400 99.200,159.200 99.400,159.200 100.200 C 159.200 101.000,159.000 101.200,158.200 101.200 C 157.400 101.200,157.200 101.400,157.200 102.200 C 157.200 103.000,157.000 103.200,156.200 103.200 C 155.400 103.200,155.200 103.400,155.200 104.200 C 155.200 105.000,155.000 105.200,154.200 105.200 C 153.400 105.200,153.200 105.400,153.200 106.200 C 153.200 107.000,153.000 107.200,152.200 107.200 C 151.400 107.200,151.200 107.400,151.200 108.200 C 151.200 109.000,151.000 109.200,150.200 109.200 C 149.400 109.200,149.200 109.400,149.200 110.200 C 149.200 111.000,149.000 111.200,148.200 111.200 C 147.400 111.200,147.200 111.400,147.200 112.200 C 147.200 113.000,147.000 113.200,146.200 113.200 C 145.400 113.200,145.200 113.400,145.200 114.200 C 145.200 115.000,145.000 115.200,144.200 115.200 C 143.400 115.200,143.200 115.400,143.200 116.200 C 143.200 117.000,143.000 117.200,142.200 117.200 C 141.400 117.200,141.200 117.400,141.200 118.200 C 141.200 119.000,141.000 119.200,140.200 119.200 C 139.400 119.200,139.200 119.400,139.200 120.200 C 139.200 121.000,139.000 121.200,138.200 121.200 C 137.400 121.200,137.200 121.400,137.200 122.200 C 137.200 123.000,137.000 123.200,136.200 123.200 C 135.400 123.200,135.200 123.400,135.200 124.200 C 135.200 125.000,135.000 125.200,134.200 125.200 C 133.400 125.200,133.200 125.400,133.200 126.200 C 133.200 127.000,133.000 127.200,132.200 127.200 C 131.400 127.200,131.200 127.400,131.200 128.200 C 131.200 129.000,131.000 129.200,130.200 129.200 C 129.400 129.200,129.200 129.400,129.200 130.200 C 129.200 131.000,129.000 131.200,128.200 131.200 C 127.400 131.200,127.200 131.400,127.200 132.200 C 127.200 133.000,127.000 133.200,126.200 133.200 C 125.400 133.200,125.200 133.400,125.200 134.200 C 125.200 135.000,125.000 135.200,124.200 135.200 C 123.400 135.200,123.200 135.400,123.200 136.200 C 123.200 137.000,123.000 137.200,122.200 137.200 C 121.400 137.200,121.200 137.400,121.200 138.200 C 121.200 139.000,121.000 139.200,120.200 139.200 C 119.400 139.200,119.200 139.400,119.200 140.200 C 119.200 141.000,119.000 141.200,118.200 141.200 C 117.400 141.200,117.200 141.400,117.200 142.200 C 117.200 143.000,117.000 143.200,116.200 143.200 C 115.400 143.200,115.200 143.400,115.200 144.200 C 115.200 145.000,115.000 145.200,114.200 145.200 C 113.400 145.200,113.200 145.400,113.200 146.200 C 113.200 147.000,113.000 147.200,112.200 147.200 C 111.400 147.200,111.200 147.400,111.200 148.200 C 111.200 149.000,111.000 149.200,110.200 149.200 C 109.400 149.200,109.200 149.400,109.200 150.200 C 109.200 151.000,109.000 151.200,108.200 151.200 C 107.400 151.200,107.200 151.400,107.200 152.200 C 107.200 153.000,107.000 153.200,106.200 153.200 C 105.400 153.200,105.200 153.400,105.200 154.200 C 105.200 155.000,105.000 155.200,104.200 155.200 C 103.400 155.200,103.200 155.400,103.200 156.200 C 103.200 157.000,103.000 157.200,102.200 157.200 C 101.400 157.200,101.200 157.400,101.200 158.200 C 101.200 159.000,101.000 159.200,100.200 159.200 C 99.400 159.200,99.200 159.400,99.200 160.200 C 99.200 161.000,99.000 161.200,98.200 161.200 C 97.400 161.200,97.200 161.400,97.200 162.200 C 97.200 163.000,97.000 163.200,96.200 163.200 C 95.400 163.200,95.200 163.400,95.200 164.200 C 95.200 165.000,95.000 165.200,94.200 165.200 C 93.400 165.200,93.200 165.400,93.200 166.200 C 93.200 167.000,93.000 167.200,92.200 167.200 C 91.400 167.200,91.200 167.400,91.200 168.200 C 91.200 169.000,91.000 169.200,90.200 169.200 C 89.400 169.200,89.200 169.400,89.200 170.200 C 89.200 171.000,89.000 171.200,88.200 171.200 C 87.400 171.200,87.200 171.400,87.200 172.200 C 87.200 173.000,87.000 173.200,86.200 173.200 C 85.400 173.200,85.200 173.400,85.200 174.200 C 85.200 175.000,85.000 175.200,84.200 175.200 C 83.400 175.200,83.200 175.400,83.200 176.200 C 83.200 177.000,83.000 177.200,82.200 177.200 C 81.400 177.200,81.200 177.400,81.200 178.200 C 81.200 179.000,81.000 179.200,80.200 179.200 C 79.400 179.200,79.200 179.400,79.200 180.200 C 79.200 181.000,79.000 181.200,78.200 181.200 C 77.400 181.200,77.200 181.400,77.200 182.200 C 77.200 183.000,77.000 183.200,76.200 183.200 C 75.400 183.200,75.200 183.400,75.200 184.200 C 75.200 185.000,75.000 185.200,74.200 185.200 C 73.400 185.200,73.200 185.400,73.200 186.200 C 73.200 187.000,73.000 187.200,72.200 187.200 C 71.400 187.200,71.200 187.400,71.200 188.200 C 71.200 189.000,71.000 189.200,70.200 189.200 C 69.400 189.200,69.200 189.400,69.200 190.200 C 69.200 191.000,69.000 191.200,68.200 191.200 C 67.400 191.200,67.200 191.400,67.200 192.200 C 67.200 193.000,67.000 193.200,66.200 193.200 C 65.400 193.200,65.200 193.400,65.200 194.200 C 65.200 195.000,65.000 195.200,64.200 195.200 C 63.400 195.200,63.200 195.400,63.200 196.200 C 63.200 197.000,63.000 197.200,62.200 197.200 C 61.404 197.200,61.200 197.401,61.200 198.186 C 61.200 198.742,60.872 199.348,60.447 199.575 C 59.218 200.232,59.122 201.158,60.172 202.208 C 60.702 202.739,61.197 203.494,61.272 203.886 C 61.347 204.279,61.800 204.656,62.279 204.725 C 62.821 204.802,63.198 205.181,63.275 205.725 C 63.353 206.270,63.730 206.647,64.275 206.725 C 64.821 206.802,65.198 207.179,65.275 207.725 C 65.353 208.270,65.730 208.647,66.275 208.725 C 66.821 208.802,67.198 209.179,67.275 209.725 C 67.353 210.270,67.730 210.647,68.275 210.725 C 68.821 210.802,69.198 211.179,69.275 211.725 C 69.353 212.270,69.730 212.647,70.275 212.725 C 70.821 212.802,71.198 213.179,71.275 213.725 C 71.353 214.270,71.730 214.647,72.275 214.725 C 72.821 214.802,73.198 215.179,73.275 215.725 C 73.353 216.270,73.730 216.647,74.275 216.725 C 74.821 216.802,75.198 217.179,75.275 217.725 C 75.353 218.270,75.730 218.647,76.275 218.725 C 76.821 218.802,77.198 219.179,77.275 219.725 C 77.353 220.270,77.730 220.647,78.275 220.725 C 78.821 220.802,79.198 221.179,79.275 221.725 C 79.353 222.270,79.730 222.647,80.275 222.725 C 80.821 222.802,81.198 223.179,81.275 223.725 C 81.353 224.270,81.730 224.647,82.275 224.725 C 82.821 224.802,83.198 225.179,83.275 225.725 C 83.353 226.270,83.730 226.647,84.275 226.725 C 84.821 226.802,85.198 227.179,85.275 227.725 C 85.352 228.264,85.730 228.647,86.259 228.722 C 86.732 228.790,87.213 229.208,87.330 229.652 C 87.446 230.096,87.897 230.553,88.333 230.667 C 88.769 230.781,89.219 231.231,89.333 231.667 C 89.447 232.103,89.897 232.553,90.333 232.667 C 90.769 232.781,91.219 233.231,91.333 233.667 C 91.447 234.103,91.897 234.553,92.333 234.667 C 92.769 234.781,93.219 235.231,93.333 235.667 C 93.447 236.103,93.897 236.553,94.333 236.667 C 94.769 236.781,95.219 237.231,95.333 237.667 C 95.447 238.103,95.897 238.553,96.333 238.667 C 96.769 238.781,97.219 239.231,97.333 239.667 C 97.447 240.103,97.897 240.553,98.333 240.667 C 98.769 240.781,99.219 241.231,99.333 241.667 C 99.447 242.103,99.897 242.553,100.333 242.667 C 100.769 242.781,101.219 243.231,101.333 243.667 C 101.447 244.103,101.897 244.553,102.333 244.667 C 102.769 244.781,103.219 245.231,103.333 245.667 C 103.447 246.103,103.897 246.553,104.333 246.667 C 104.769 246.781,105.216 247.216,105.325 247.635 C 105.434 248.054,105.838 248.516,106.222 248.664 C 106.605 248.811,111.377 253.402,116.826 258.866 C 122.275 264.330,126.864 268.800,127.026 268.800 C 127.187 268.800,131.358 272.840,136.296 277.777 C 141.445 282.927,145.641 286.806,146.136 286.877 C 146.670 286.953,147.048 287.334,147.125 287.875 C 147.202 288.421,147.579 288.798,148.125 288.875 C 148.670 288.953,149.047 289.330,149.125 289.875 C 149.202 290.421,149.579 290.798,150.125 290.875 C 150.670 290.953,151.047 291.330,151.125 291.875 C 151.202 292.421,151.579 292.798,152.125 292.875 C 152.670 292.953,153.047 293.330,153.125 293.875 C 153.202 294.421,153.579 294.798,154.125 294.875 C 154.670 294.953,155.047 295.330,155.125 295.875 C 155.202 296.421,155.579 296.798,156.125 296.875 C 156.670 296.953,157.047 297.330,157.125 297.875 C 157.202 298.421,157.579 298.798,158.125 298.875 C 158.670 298.953,159.047 299.330,159.125 299.875 C 159.202 300.421,159.579 300.798,160.125 300.875 C 160.670 300.953,161.047 301.330,161.125 301.875 C 161.202 302.421,161.579 302.798,162.125 302.875 C 162.670 302.953,163.047 303.330,163.125 303.875 C 163.202 304.421,163.579 304.798,164.125 304.875 C 164.679 304.954,165.047 305.330,165.128 305.900 C 165.220 306.551,165.524 306.800,166.228 306.800 C 166.998 306.800,167.200 307.008,167.200 307.800 C 167.200 308.600,167.400 308.800,168.200 308.800 C 169.000 308.800,169.200 309.000,169.200 309.800 C 169.200 310.600,169.400 310.800,170.200 310.800 C 171.000 310.800,171.200 311.000,171.200 311.800 C 171.200 312.600,171.400 312.800,172.200 312.800 C 173.000 312.800,173.200 313.000,173.200 313.800 C 173.200 314.600,173.400 314.800,174.200 314.800 C 175.000 314.800,175.200 315.000,175.200 315.800 C 175.200 316.600,175.400 316.800,176.200 316.800 C 177.000 316.800,177.200 317.000,177.200 317.800 C 177.200 318.600,177.400 318.800,178.200 318.800 C 179.000 318.800,179.200 319.000,179.200 319.800 C 179.200 320.600,179.400 320.800,180.200 320.800 C 181.000 320.800,181.200 321.000,181.200 321.800 C 181.200 322.600,181.400 322.800,182.200 322.800 C 183.000 322.800,183.200 323.000,183.200 323.800 C 183.200 324.600,183.400 324.800,184.200 324.800 C 185.000 324.800,185.200 325.000,185.200 325.800 C 185.200 326.600,185.400 326.800,186.200 326.800 C 187.000 326.800,187.200 327.000,187.200 327.800 C 187.200 328.600,187.400 328.800,188.200 328.800 C 189.000 328.800,189.200 329.000,189.200 329.800 C 189.200 330.600,189.400 330.800,190.200 330.800 C 191.000 330.800,191.200 331.000,191.200 331.800 C 191.200 332.600,191.400 332.800,192.200 332.800 C 193.000 332.800,193.200 333.000,193.200 333.800 C 193.200 334.600,193.400 334.800,194.200 334.800 C 195.000 334.800,195.200 335.000,195.200 335.800 C 195.200 336.600,195.400 336.800,196.200 336.800 C 197.000 336.800,197.200 337.000,197.200 337.800 C 197.200 338.592,197.402 338.800,198.172 338.800 C 198.876 338.800,199.180 339.049,199.272 339.700 C 199.380 340.462,199.645 340.600,201.000 340.600 C 202.355 340.600,202.620 340.462,202.728 339.700 C 202.820 339.049,203.124 338.800,203.828 338.800 C 204.598 338.800,204.800 338.592,204.800 337.800 C 204.800 337.000,205.000 336.800,205.800 336.800 C 206.600 336.800,206.800 336.600,206.800 335.800 C 206.800 335.000,207.000 334.800,207.800 334.800 C 208.600 334.800,208.800 334.600,208.800 333.800 C 208.800 333.000,209.000 332.800,209.800 332.800 C 210.600 332.800,210.800 332.600,210.800 331.800 C 210.800 331.000,211.000 330.800,211.800 330.800 C 212.600 330.800,212.800 330.600,212.800 329.800 C 212.800 329.000,213.000 328.800,213.800 328.800 C 214.600 328.800,214.800 328.600,214.800 327.800 C 214.800 327.000,215.000 326.800,215.800 326.800 C 216.600 326.800,216.800 326.600,216.800 325.800 C 216.800 325.000,217.000 324.800,217.800 324.800 C 218.600 324.800,218.800 324.600,218.800 323.800 C 218.800 323.000,219.000 322.800,219.800 322.800 C 220.600 322.800,220.800 322.600,220.800 321.800 C 220.800 321.000,221.000 320.800,221.800 320.800 C 222.600 320.800,222.800 320.600,222.800 319.800 C 222.800 319.000,223.000 318.800,223.800 318.800 C 224.600 318.800,224.800 318.600,224.800 317.800 C 224.800 317.000,225.000 316.800,225.800 316.800 C 226.600 316.800,226.800 316.600,226.800 315.800 C 226.800 315.000,227.000 314.800,227.800 314.800 C 228.600 314.800,228.800 314.600,228.800 313.800 C 228.800 313.000,229.000 312.800,229.800 312.800 C 230.600 312.800,230.800 312.600,230.800 311.800 C 230.800 311.000,231.000 310.800,231.800 310.800 C 232.600 310.800,232.800 310.600,232.800 309.800 C 232.800 309.000,233.000 308.800,233.800 308.800 C 234.600 308.800,234.800 308.600,234.800 307.800 C 234.800 307.000,235.000 306.800,235.800 306.800 C 236.600 306.800,236.800 306.600,236.800 305.800 C 236.800 305.000,237.000 304.800,237.800 304.800 C 238.600 304.800,238.800 304.600,238.800 303.800 C 238.800 303.000,239.000 302.800,239.800 302.800 C 240.600 302.800,240.800 302.600,240.800 301.800 C 240.800 301.000,241.000 300.800,241.800 300.800 C 242.600 300.800,242.800 300.600,242.800 299.800 C 242.800 299.000,243.000 298.800,243.800 298.800 C 244.600 298.800,244.800 298.600,244.800 297.800 C 244.800 297.000,245.000 296.800,245.800 296.800 C 246.600 296.800,246.800 296.600,246.800 295.800 C 246.800 295.000,247.000 294.800,247.800 294.800 C 248.600 294.800,248.800 294.600,248.800 293.800 C 248.800 293.000,249.000 292.800,249.800 292.800 C 250.600 292.800,250.800 292.600,250.800 291.800 C 250.800 291.000,251.000 290.800,251.800 290.800 C 252.593 290.800,252.800 290.598,252.800 289.827 C 252.800 289.062,253.036 288.826,253.900 288.727 C 254.677 288.637,255.037 288.343,255.125 287.725 C 255.202 287.179,255.579 286.802,256.125 286.725 C 256.670 286.647,257.047 286.270,257.125 285.725 C 257.202 285.179,257.579 284.802,258.125 284.725 C 258.679 284.646,259.047 284.270,259.128 283.700 C 259.220 283.049,259.524 282.800,260.228 282.800 C 260.998 282.800,261.200 282.592,261.200 281.800 C 261.200 281.000,261.400 280.800,262.200 280.800 C 263.000 280.800,263.200 280.600,263.200 279.800 C 263.200 279.000,263.400 278.800,264.200 278.800 C 265.000 278.800,265.200 278.600,265.200 277.800 C 265.200 277.000,265.400 276.800,266.200 276.800 C 267.000 276.800,267.200 276.600,267.200 275.800 C 267.200 275.000,267.400 274.800,268.200 274.800 C 269.000 274.800,269.200 274.600,269.200 273.800 C 269.200 273.000,269.400 272.800,270.200 272.800 C 271.000 272.800,271.200 272.600,271.200 271.800 C 271.200 271.000,271.400 270.800,272.200 270.800 C 273.000 270.800,273.200 270.600,273.200 269.800 C 273.200 269.000,273.400 268.800,274.200 268.800 C 275.000 268.800,275.200 268.600,275.200 267.800 C 275.200 267.000,275.400 266.800,276.200 266.800 C 277.000 266.800,277.200 266.600,277.200 265.800 C 277.200 265.000,277.400 264.800,278.200 264.800 C 279.000 264.800,279.200 264.600,279.200 263.800 C 279.200 263.000,279.400 262.800,280.200 262.800 C 281.000 262.800,281.200 262.600,281.200 261.800 C 281.200 261.000,281.400 260.800,282.200 260.800 C 283.000 260.800,283.200 260.600,283.200 259.800 C 283.200 259.000,283.400 258.800,284.200 258.800 C 285.000 258.800,285.200 258.600,285.200 257.800 C 285.200 257.000,285.400 256.800,286.200 256.800 C 287.000 256.800,287.200 256.600,287.200 255.800 C 287.200 255.000,287.400 254.800,288.200 254.800 C 289.000 254.800,289.200 254.600,289.200 253.800 C 289.200 253.000,289.400 252.800,290.200 252.800 C 291.000 252.800,291.200 252.600,291.200 251.800 C 291.200 251.000,291.400 250.800,292.200 250.800 C 293.000 250.800,293.200 250.600,293.200 249.800 C 293.200 249.000,293.400 248.800,294.200 248.800 C 295.000 248.800,295.200 248.600,295.200 247.800 C 295.200 247.000,295.400 246.800,296.200 246.800 C 297.000 246.800,297.200 246.600,297.200 245.800 C 297.200 245.000,297.400 244.800,298.200 244.800 C 299.000 244.800,299.200 244.600,299.200 243.800 C 299.200 243.000,299.400 242.800,300.200 242.800 C 301.000 242.800,301.200 242.600,301.200 241.800 C 301.200 241.000,301.400 240.800,302.200 240.800 C 303.000 240.800,303.200 240.600,303.200 239.800 C 303.200 239.067,303.413 238.800,304.000 238.800 C 304.587 238.800,304.800 238.533,304.800 237.800 C 304.800 237.000,305.000 236.800,305.800 236.800 C 306.600 236.800,306.800 236.600,306.800 235.800 C 306.800 235.000,307.000 234.800,307.800 234.800 C 308.600 234.800,308.800 234.600,308.800 233.800 C 308.800 233.000,309.000 232.800,309.800 232.800 C 310.600 232.800,310.800 232.600,310.800 231.800 C 310.800 231.000,311.000 230.800,311.800 230.800 C 312.600 230.800,312.800 230.600,312.800 229.800 C 312.800 229.000,313.000 228.800,313.800 228.800 C 314.600 228.800,314.800 228.600,314.800 227.800 C 314.800 227.000,315.000 226.800,315.800 226.800 C 316.600 226.800,316.800 226.600,316.800 225.800 C 316.800 225.000,317.000 224.800,317.800 224.800 C 318.600 224.800,318.800 224.600,318.800 223.800 C 318.800 223.000,319.000 222.800,319.800 222.800 C 320.600 222.800,320.800 222.600,320.800 221.800 C 320.800 221.000,321.000 220.800,321.800 220.800 C 322.600 220.800,322.800 220.600,322.800 219.800 C 322.800 219.000,323.000 218.800,323.800 218.800 C 324.600 218.800,324.800 218.600,324.800 217.800 C 324.800 217.000,325.000 216.800,325.800 216.800 C 326.600 216.800,326.800 216.600,326.800 215.800 C 326.800 215.000,327.000 214.800,327.800 214.800 C 328.600 214.800,328.800 214.600,328.800 213.800 C 328.800 213.000,329.000 212.800,329.800 212.800 C 330.600 212.800,330.800 212.600,330.800 211.800 C 330.800 211.000,331.000 210.800,331.800 210.800 C 332.600 210.800,332.800 210.600,332.800 209.800 C 332.800 209.000,333.000 208.800,333.800 208.800 C 334.600 208.800,334.800 208.600,334.800 207.800 C 334.800 207.000,335.000 206.800,335.800 206.800 C 336.600 206.800,336.800 206.600,336.800 205.800 C 336.800 205.000,337.000 204.800,337.800 204.800 C 338.600 204.800,338.800 204.600,338.800 203.800 C 338.800 203.000,339.000 202.800,339.800 202.800 C 340.771 202.800,340.800 202.720,340.800 200.000 C 340.800 197.280,340.771 197.200,339.800 197.200 C 339.000 197.200,338.800 197.000,338.800 196.200 C 338.800 195.408,338.598 195.200,337.828 195.200 C 337.124 195.200,336.820 194.951,336.728 194.300 C 336.647 193.730,336.279 193.354,335.725 193.275 C 335.179 193.198,334.802 192.821,334.725 192.275 C 334.647 191.730,334.270 191.353,333.725 191.275 C 333.179 191.198,332.802 190.821,332.725 190.275 C 332.647 189.730,332.270 189.353,331.725 189.275 C 331.179 189.198,330.802 188.821,330.725 188.275 C 330.647 187.730,330.270 187.353,329.725 187.275 C 329.179 187.198,328.802 186.821,328.725 186.275 C 328.647 185.730,328.270 185.353,327.725 185.275 C 327.179 185.198,326.802 184.821,326.725 184.275 C 326.647 183.730,326.270 183.353,325.725 183.275 C 325.179 183.198,324.802 182.821,324.725 182.275 C 324.647 181.730,324.270 181.353,323.725 181.275 C 323.179 181.198,322.802 180.821,322.725 180.275 C 322.647 179.730,322.270 179.353,321.725 179.275 C 321.179 179.198,320.802 178.821,320.725 178.275 C 320.647 177.730,320.270 177.353,319.725 177.275 C 319.179 177.198,318.802 176.821,318.725 176.275 C 318.647 175.730,318.270 175.353,317.725 175.275 C 317.179 175.198,316.802 174.821,316.725 174.275 C 316.647 173.730,316.270 173.353,315.725 173.275 C 315.179 173.198,314.802 172.821,314.725 172.275 C 314.647 171.730,314.270 171.353,313.725 171.275 C 313.179 171.198,312.802 170.821,312.725 170.275 C 312.647 169.730,312.270 169.353,311.725 169.275 C 311.179 169.198,310.802 168.821,310.725 168.275 C 310.647 167.730,310.270 167.353,309.725 167.275 C 309.179 167.198,308.802 166.821,308.725 166.275 C 308.647 165.730,308.270 165.353,307.725 165.275 C 307.179 165.198,306.802 164.821,306.725 164.275 C 306.647 163.730,306.270 163.353,305.725 163.275 C 305.179 163.198,304.802 162.821,304.725 162.275 C 304.647 161.730,304.270 161.353,303.725 161.275 C 303.179 161.198,302.802 160.821,302.725 160.275 C 302.647 159.730,302.270 159.353,301.725 159.275 C 301.179 159.198,300.802 158.821,300.725 158.275 C 300.647 157.730,300.270 157.353,299.725 157.275 C 299.179 157.198,298.802 156.821,298.725 156.275 C 298.648 155.736,298.270 155.353,297.741 155.278 C 297.268 155.210,296.787 154.792,296.670 154.348 C 296.554 153.904,296.103 153.447,295.667 153.333 C 295.231 153.219,294.781 152.769,294.667 152.333 C 294.553 151.897,294.103 151.447,293.667 151.333 C 293.231 151.219,292.781 150.769,292.667 150.333 C 292.553 149.897,292.103 149.447,291.667 149.333 C 291.231 149.219,290.781 148.769,290.667 148.333 C 290.553 147.897,290.103 147.447,289.667 147.333 C 289.231 147.219,288.781 146.769,288.667 146.333 C 288.553 145.897,288.103 145.447,287.667 145.333 C 287.231 145.219,286.781 144.769,286.667 144.333 C 286.553 143.897,286.103 143.447,285.667 143.333 C 285.231 143.219,284.781 142.769,284.667 142.333 C 284.553 141.897,284.103 141.447,283.667 141.333 C 283.231 141.219,282.781 140.769,282.667 140.333 C 282.553 139.897,282.103 139.447,281.667 139.333 C 281.231 139.219,280.784 138.784,280.675 138.365 C 280.566 137.946,280.172 137.487,279.801 137.345 C 279.429 137.202,274.641 132.656,269.161 127.243 C 244.445 102.829,238.790 97.387,237.925 97.184 C 237.375 97.055,236.950 96.619,236.875 96.108 C 236.799 95.580,236.414 95.201,235.875 95.125 C 235.330 95.047,234.953 94.670,234.875 94.125 C 234.798 93.579,234.421 93.202,233.875 93.125 C 233.330 93.047,232.953 92.670,232.875 92.125 C 232.798 91.579,232.421 91.202,231.875 91.125 C 231.330 91.047,230.953 90.670,230.875 90.125 C 230.798 89.579,230.421 89.202,229.875 89.125 C 229.330 89.047,228.953 88.670,228.875 88.125 C 228.798 87.579,228.421 87.202,227.875 87.125 C 227.330 87.047,226.953 86.670,226.875 86.125 C 226.798 85.579,226.421 85.202,225.875 85.125 C 225.330 85.047,224.953 84.670,224.875 84.125 C 224.798 83.579,224.421 83.202,223.875 83.125 C 223.330 83.047,222.953 82.670,222.875 82.125 C 222.798 81.579,222.421 81.202,221.875 81.125 C 221.321 81.046,220.953 80.670,220.872 80.100 C 220.780 79.449,220.476 79.200,219.772 79.200 C 219.002 79.200,218.800 78.992,218.800 78.200 C 218.800 77.400,218.600 77.200,217.800 77.200 C 217.000 77.200,216.800 77.000,216.800 76.200 C 216.800 75.400,216.600 75.200,215.800 75.200 C 215.000 75.200,214.800 75.000,214.800 74.200 C 214.800 73.400,214.600 73.200,213.800 73.200 C 213.000 73.200,212.800 73.000,212.800 72.200 C 212.800 71.400,212.600 71.200,211.800 71.200 C 211.000 71.200,210.800 71.000,210.800 70.200 C 210.800 69.400,210.600 69.200,209.800 69.200 C 209.000 69.200,208.800 69.000,208.800 68.200 C 208.800 67.400,208.600 67.200,207.800 67.200 C 207.000 67.200,206.800 67.000,206.800 66.200 C 206.800 65.400,206.600 65.200,205.800 65.200 C 205.000 65.200,204.800 65.000,204.800 64.200 C 204.800 63.400,204.600 63.200,203.800 63.200 C 203.000 63.200,202.800 63.000,202.800 62.200 C 202.800 61.210,198.337 60.596,197.467 61.467 " stroke="none" fill="#0454fc" fill-rule="evenodd"></path><path id="path1" d="" stroke="none" fill="#0854fc" fill-rule="evenodd"></path><path id="path2" d="" stroke="none" fill="#0854fc" fill-rule="evenodd"></path><path id="path3" d="" stroke="none" fill="#0854fc" fill-rule="evenodd"></path><path id="path4" d="" stroke="none" fill="#0854fc" fill-rule="evenodd"></path></g></svg>
